<svg xmlns="http://www.w3.org/2000/svg" viewBox="0 0 159.61 76.63"><defs><style>.cls-1,.cls-2{fill:none;stroke:#e1e1e1;}.cls-2{stroke-miterlimit:10;}</style></defs><title>Asset 3</title><g id="Layer_2" data-name="Layer 2"><g id="Layer_1-2" data-name="Layer 1"><line id="Line_11" data-name="Line 11" class="cls-1" y1="76.13" x2="159" y2="76.13"/><polyline id="Line_11-2" data-name="Line 11" class="cls-1" points="0.5 76.13 20.5 56.13 21 56.13 43 56.13"/><polyline id="Line_11-3" data-name="Line 11" class="cls-1" points="117 56.13 139 56.13 139.26 56.21 159.26 76.21"/><path class="cls-2" d="M79.31,61.5S63.08,49.8,57.18,34a23.66,23.66,0,0,1-.61-15.25C60.36,6.47,71.77.5,79.31.5H80c7.55,0,19,6,22.74,18.22a23.68,23.68,0,0,1-.61,15.21C96.23,49.8,80,61.5,80,61.5Z"/><circle class="cls-2" cx="79.5" cy="24.13" r="8"/></g></g></svg>